<?xml version="1.0" encoding="utf-8"?>
<!-- Generator: Adobe Illustrator 20.1.0, SVG Export Plug-In . SVG Version: 6.00 Build 0)  -->
<svg version="1.1" xmlns="http://www.w3.org/2000/svg" xmlns:xlink="http://www.w3.org/1999/xlink" x="0px" y="0px"
	 viewBox="0 0 256 256" style="enable-background:new 0 0 256 256;" xml:space="preserve">
<style type="text/css">
	.st0{fill:#F36E5B;}
	.st1{opacity:0.33;fill:#F2DCD9;}
	.st2{opacity:0.8;fill:#F2DCD9;}
	.st3{opacity:0.66;fill:#F2DCD9;}
	.st4{fill:#F2DCD9;}
	.st5{fill:none;stroke:#813830;stroke-width:2;stroke-miterlimit:10;}
	.st6{fill:none;stroke:#F2DCD9;stroke-width:9;stroke-linecap:round;stroke-miterlimit:10;}
	.st7{fill:#FFFFFF;}
</style>
<g id="Layer_1">
	<rect x="0" class="st0" width="256" height="256"/>
</g>
<g id="Layer_4">
	<path class="st1" d="M29.6,147.6c1.4,0,2.8-0.5,3.8-1.6c2.1-2.1,2.1-5.5,0-7.6c-16.8-16.8-26-39.1-26-62.8c0-23.7,9.2-46,26-62.8
		c5-5,10.5-9.3,16.4-12.9H31.5c-2,1.7-3.9,3.4-5.7,5.3C12.9,18.2,4.3,33.7,0,50.2v51c4.3,16.5,12.9,32,25.8,44.9
		C26.9,147.1,28.2,147.6,29.6,147.6z"/>
	<path class="st1" d="M158.9,12.9c34.6,34.6,34.6,90.9,0,125.5c-2.1,2.1-2.1,5.5,0,7.6c2.1,2.1,5.5,2.1,7.6,0
		c18.8-18.8,29.2-43.8,29.2-70.4c0-26.6-10.3-51.6-29.1-70.4c-1.9-1.9-3.8-3.6-5.7-5.3h-18.3C148.4,3.6,153.9,7.9,158.9,12.9z"/>
</g>
<g id="Layer_3">
	<path class="st2" d="M67.6,109.6c-1.4,0-2.8-0.5-3.8-1.6C46,90.2,46,61.2,63.8,43.3c17.8-17.8,46.8-17.8,64.7,0
		c8.6,8.6,13.4,20.1,13.4,32.3c0,12.2-4.8,23.7-13.4,32.3c-2.1,2.1-5.5,2.1-7.6,0c-2.1-2.1-2.1-5.5,0-7.6
		c6.6-6.6,10.2-15.4,10.2-24.7s-3.6-18.1-10.2-24.7c-6.6-6.6-15.4-10.2-24.7-10.2c0,0,0,0,0,0c-9.3,0-18.1,3.6-24.7,10.2
		c-13.6,13.6-13.6,35.8,0,49.5c2.1,2.1,2.1,5.5,0,7.6C70.4,109,69,109.6,67.6,109.6z"/>
	<path class="st3" d="M48.6,128.6c-1.4,0-2.8-0.5-3.8-1.6c-13.7-13.7-21.3-32-21.3-51.4c0-19.4,7.6-37.6,21.3-51.4
		C58.5,10.6,76.8,3,96.2,3c0,0,0,0,0,0c19.4,0,37.6,7.6,51.4,21.3c28.3,28.3,28.3,74.4,0,102.7c-2.1,2.1-5.5,2.1-7.6,0
		c-2.1-2.1-2.1-5.5,0-7.6c24.1-24.1,24.1-63.4,0-87.5c-11.7-11.7-27.2-18.1-43.8-18.1c0,0,0,0,0,0c-16.5,0-32.1,6.4-43.7,18.1
		C40.7,43.6,34.3,59.1,34.3,75.7c0,16.5,6.4,32.1,18.1,43.7c2.1,2.1,2.1,5.5,0,7.6C51.4,128.1,50,128.6,48.6,128.6z"/>
	<path class="st4" d="M114.2,75.3c-1.5,0-3-0.9-3.7-2.3c-1-2-0.1-4.5,1.9-5.5l70.9-34.6c2-1,4.5-0.1,5.5,1.9c1,2,0.1,4.5-1.9,5.5
		L116,74.9C115.4,75.2,114.8,75.3,114.2,75.3z"/>
	<polygon class="st4" points="112.4,256.3 85.5,256.3 90.9,92.9 107,92.9 	"/>
	<polygon class="st5" points="109.6,255.4 82.7,255.4 88.1,92 104.2,92 	"/>
	<circle class="st4" cx="98.9" cy="77.5" r="20.2"/>
	<circle class="st5" cx="96.2" cy="75.7" r="20.2"/>
	<path class="st6" d="M21.8,111.6"/>
	<path class="st4" d="M10.6,123.2c-1.5,0-3-0.9-3.7-2.3c-1-2-0.1-4.5,1.9-5.5l81.3-39.6c2-1,4.5-0.1,5.5,1.9c1,2,0.1,4.5-1.9,5.5
		l-81.3,39.6C11.8,123.1,11.2,123.2,10.6,123.2z"/>
	<path class="st5" d="M8.8,121.4c-1.5,0-3-0.9-3.7-2.3c-1-2-0.1-4.5,1.9-5.5l81.3-39.6c2-1,4.5-0.1,5.5,1.9c1,2,0.1,4.5-1.9,5.5
		L10.6,121C10,121.3,9.4,121.4,8.8,121.4z"/>
	<path class="st5" d="M111.4,73.5c-1.5,0-3-0.9-3.7-2.3c-1-2-0.1-4.5,1.9-5.5l70.9-34.6c2-1,4.5-0.1,5.5,1.9c1,2,0.1,4.5-1.9,5.5
		l-70.9,34.6C112.6,73.4,112,73.5,111.4,73.5z"/>
</g>
<g id="Layer_2">
	<g>
		<path class="st7" d="M214.5,128l-9.1,27.6l10,33.5h-16.4l-6.4-26.2v26.2h-15.9V128h15.9v23.7l7.1-23.7H214.5z"/>
		<path class="st7" d="M250.9,128v9.8H232v10.4c2.4-2.8,5.4-4.2,9.1-4.2c4.2,0,7.4,1.2,9.5,3.5c2.1,2.4,3.2,6.9,3.2,13.6v8.7
			c0,4.3-0.2,7.5-0.6,9.5c-0.4,2-1.3,3.9-2.7,5.6c-1.4,1.7-3.2,3-5.7,4c-2.4,0.9-5.4,1.4-8.9,1.4c-3.9,0-7.4-0.7-10.4-2.1
			c-3-1.4-5.1-3.4-6.4-6.1c-1.3-2.7-1.9-6.9-1.9-12.6v-3.3h15.2v3.8c0,3.9,0.1,6.8,0.4,8.4c0.3,1.7,1.2,2.5,2.9,2.5
			c0.8,0,1.4-0.2,1.8-0.7c0.5-0.5,0.7-1,0.8-1.5c0-0.6,0.1-3,0.1-7.2v-12.1c0-2.3-0.2-3.8-0.7-4.7c-0.5-0.8-1.3-1.2-2.4-1.2
			c-0.7,0-1.3,0.2-1.8,0.6c-0.5,0.4-0.8,0.9-0.9,1.4c-0.1,0.5-0.2,1.6-0.2,3.4h-15.1l0.6-30.8H250.9z"/>
		<path class="st7" d="M213.1,194.9V256h-15.9v-25.6h-4.8V256h-15.9v-61.1h15.9v21.8h4.8v-21.8H213.1z"/>
		<path class="st7" d="M256,194.9V256h-15.9v-25.6h-4.8V256h-15.9v-61.1h15.9v21.8h4.8v-21.8H256z"/>
	</g>
</g>
</svg>
